# xmcd CD database file
#
# Track frame offsets:
#	150
#	36643
#	62185
#	86975
#	118543
#	149095
#	178168
#	212098
#	227513
#	258353
#	278848
#
# Disc length: 3969 seconds
#
# Revision: 0
# Processed by: cddbd v1.5.2PL0 Copyright (c) Steve Scherf et al.
# Submitted via: CDex 1.91
#
DISCID=ae0f7f0b
DTITLE=George Shearing - Walkin' - Live At the Bluenote
DYEAR=1995
DGENRE=Jazz
TTITLE0=That's Earl, Brother
TTITLE1=My One and Only Love
TTITLE2=Pensativa
TTITLE3=Walkin'
TTITLE4=When She Makes Music
TTITLE5=Celia
TTITLE6=Subconscious Lee
TTITLE7=Suddenly It's Spring
TTITLE8=Bag's Groove
TTITLE9=Ev'ry Time We Say Goodbye
TTITLE10=Loot to Boot
EXTD=YEAR: 1995
EXTT0=
EXTT1=
EXTT2=
EXTT3=
EXTT4=
EXTT5=
EXTT6=
EXTT7=
EXTT8=
EXTT9=
EXTT10=
PLAYORDER=
